<?xml version="1.0" encoding="UTF-8"?><svg xmlns="http://www.w3.org/2000/svg" xmlns:xlink="http://www.w3.org/1999/xlink" width="100%" xml:space="preserve" viewBox="0 0 305.0 161.95003509521484" height="100%" version="1.1"><g fill="#da2128" transform="translate(23.910317143885152,0.0)"><path d="M61.215446472168 100 L91.726425170898 100 L62.751811981201 16.057796478271 L28.963256835938 16.057796478271 L0 100 L30.556512832642 100 L33.401626586914 90.326622009277 L58.438613891602 90.326622009277 ZM39.478778839111 69.386596679688 L45.86319732666 47.615795135498 L52.247611999512 69.386596679688 Z" fill-rule="evenodd"/><path d="M144.36100769043 100 L180.778442382812 100 L146.26155090332 0 L105.96337890625 0 L71.446495056152 100 L107.79564666748 100 L111.209785461426 88.471603393555 L141.037933349609 88.471603393555 ZM118.459091186523 63.58256149292 L126.061218261719 37.646511077881 L133.674743652344 63.58256149292 Z" fill-rule="evenodd"/><path d="M193.79768371582 90.29248046875 L218.834671020508 90.29248046875 L221.679779052734 99.965858459473 L252.17936706543 99.965858459473 L223.216110229492 16.023656845093 L189.427581787109 16.023656845093 L160.452972412109 99.965858459473 L191.020843505859 99.965858459473 ZM199.931747436523 69.352462768555 L206.316177368164 47.581653594971 L212.700592041016 69.352462768555 Z" fill-rule="evenodd"/><path d="M235.814270019531 9.127107620239 C231.986572265625 9.127124786377 228.883590698242 12.230110168457 228.88362121582 16.057813644409 C228.88362121582 19.885536193848 231.986572265625 22.98850440979 235.814346313477 22.988485336304 C239.642044067383 22.988485336304 242.744995117188 19.88551902771 242.744995117188 16.057796478271 C242.732498168945 12.235250473022 239.636840820312 9.139575958252 235.814270019531 9.127107620239 ZM235.814270019531 21.645601272583 C233.562423706055 21.650203704834 231.529724121094 20.297246932983 230.664733886719 18.218095779419 C229.7998046875 16.138961791992 230.27311706543 13.743469238281 231.863830566406 12.149518013 C233.454483032227 10.555567741394 235.848999023438 10.07736492157 237.929916381836 10.938053131104 C240.010818481445 11.798741340637 241.367935180664 13.828680038452 241.367935180664 16.080562591553 C241.349258422852 19.138137817383 238.871871948242 21.610437393188 235.814270019531 21.622852325439 ZM233.378845214844 12.803005218506 L236.337738037109 12.803005218506 C236.75032043457 12.792724609375 237.160705566406 12.866283416748 237.544052124023 13.019236564636 C238.135375976562 13.293154716492 238.493927001953 13.905920028687 238.443084716797 14.555603981018 C238.461486816406 14.892575263977 238.373977661133 15.226855278015 238.192749023438 15.511557579041 C238.029312133789 15.77111530304 237.796829223633 15.979983329773 237.521270751953 16.114719390869 C237.744934082031 16.196475982666 237.941787719727 16.338209152222 238.090301513672 16.524415969849 C238.246032714844 16.76834487915 238.321594238281 17.054819107056 238.306518554688 17.343811035156 L238.306518554688 18.20871925354 C238.309997558594 18.396453857422 238.332855224609 18.583337783813 238.374801635742 18.766366958618 C238.399047851562 18.934356689453 238.499969482422 19.081562042236 238.647918701172 19.1646900177 L238.647918701172 19.312641143799 L237.509887695312 19.312641143799 C237.482162475586 19.242208480835 237.459381103516 19.169967651367 237.441604614258 19.096408843994 C237.441604614258 19.005363464355 237.441604614258 18.834663391113 237.441604614258 18.584293365479 L237.441604614258 17.44624710083 C237.458404541016 17.096773147583 237.278305053711 16.767269134521 236.975036621094 16.592714309692 C236.731704711914 16.50147819519 236.471923828125 16.462682723999 236.212554931641 16.478902816772 L234.266555786133 16.478902816772 L234.266555786133 19.267108917236 L233.390228271484 19.267108917236 ZM236.2353515625 15.784677505493 C236.572647094727 15.806262016296 236.907928466797 15.718463897705 237.191329956055 15.53430557251 C237.453338623047 15.31845664978 237.586502075195 14.983429908752 237.544128417969 14.646632194519 C237.589141845703 14.258381843567 237.396041870117 13.881209373474 237.054779052734 13.690678596497 C236.830825805664 13.600483894348 236.59049987793 13.557852745056 236.349197387695 13.565493583679 L234.266555786133 13.565493583679 L234.266555786133 15.784677505493 Z" fill-rule="evenodd"/></g><g transform="translate(0.0,100.0)"><path fill="#ffffff" d="M5.21875 -4.046875 L7.671875 0 L10.28125 0 L7.53125 -4.421875 C8.203125 -4.703125 8.71875 -5.125 9.09375 -5.671875 C9.46875 -6.21875 9.671875 -6.890625 9.671875 -7.65625 C9.671875 -8.375 9.484375 -9.015625 9.140625 -9.5625 C8.78125 -10.109375 8.28125 -10.53125 7.65625 -10.8125 C7.03125 -11.09375 6.328125 -11.25 5.53125 -11.25 L0.9375 -11.25 L0.9375 0 L3.1875 0 L3.1875 -4.046875 L5.21875 -4.046875 ZM3.1875 -5.890625 L3.1875 -9.265625 L5.15625 -9.265625 C5.828125 -9.265625 6.34375 -9.109375 6.71875 -8.8125 C7.09375 -8.515625 7.28125 -8.09375 7.28125 -7.578125 C7.28125 -7.046875 7.09375 -6.640625 6.71875 -6.34375 C6.34375 -6.03125 5.828125 -5.890625 5.15625 -5.890625 L3.1875 -5.890625 ZM18.593795776367 -3.078125 L18.593795776367 -3.59375 C18.593795776367 -4.375 18.437545776367 -5.078125 18.125045776367 -5.703125 C17.812545776367 -6.3125 17.375045776367 -6.78125 16.812545776367 -7.140625 C16.234420776367 -7.46875 15.593795776367 -7.65625 14.843795776367 -7.65625 C14.109420776367 -7.65625 13.453170776367 -7.46875 12.843795776367 -7.15625 C12.250045776367 -6.8125 11.781295776367 -6.34375 11.453170776367 -5.75 C11.109420776367 -5.15625 10.953170776367 -4.46875 10.953170776367 -3.71875 C10.953170776367 -2.953125 11.125045776367 -2.265625 11.484420776367 -1.671875 C11.843795776367 -1.09375 12.328170776367 -0.640625 12.953170776367 -0.328125 C13.562545776367 0 14.250045776367 0.15625 15.000045776367 0.15625 C15.687545776367 0.15625 16.296920776367 0.03125 16.843795776367 -0.234375 C17.406295776367 -0.484375 17.875045776367 -0.84375 18.281295776367 -1.265625 L16.953170776367 -2.421875 C16.359420776367 -1.84375 15.718795776367 -1.578125 15.031295776367 -1.578125 C14.531295776367 -1.578125 14.093795776367 -1.703125 13.750045776367 -1.96875 C13.390670776367 -2.21875 13.156295776367 -2.59375 13.031295776367 -3.078125 L18.593795776367 -3.078125 ZM16.500045776367 -4.421875 L13.015670776367 -4.421875 C13.109420776367 -4.875 13.328170776367 -5.234375 13.656295776367 -5.515625 C13.968795776367 -5.78125 14.359420776367 -5.921875 14.828170776367 -5.921875 C15.281295776367 -5.921875 15.656295776367 -5.78125 15.968795776367 -5.53125 C16.265670776367 -5.265625 16.437545776367 -4.90625 16.500045776367 -4.421875 ZM21.281326293945 3.359375 C21.906326293945 3.703125 22.640701293945 3.859375 23.437576293945 3.859375 C24.156326293945 3.859375 24.843826293945 3.71875 25.437576293945 3.4375 C26.031326293945 3.15625 26.531326293945 2.71875 26.890701293945 2.15625 C27.234451293945 1.609375 27.421951293945 0.9375 27.421951293945 0.15625 L27.421951293945 -7.5 L25.328201293945 -7.5 L25.328201293945 -6.625 C25.031326293945 -6.953125 24.703201293945 -7.21875 24.296951293945 -7.390625 C23.906326293945 -7.5625 23.468826293945 -7.65625 23.015701293945 -7.65625 C22.375076293945 -7.65625 21.781326293945 -7.484375 21.250076293945 -7.171875 C20.703201293945 -6.84375 20.265701293945 -6.40625 19.937576293945 -5.828125 C19.609451293945 -5.25 19.453201293945 -4.578125 19.453201293945 -3.828125 C19.453201293945 -3.0625 19.609451293945 -2.390625 19.937576293945 -1.8125 C20.265701293945 -1.234375 20.703201293945 -0.78125 21.250076293945 -0.46875 C21.781326293945 -0.15625 22.375076293945 0 23.015701293945 0 C23.937576293945 0 24.734451293945 -0.34375 25.406326293945 -1.03125 L25.406326293945 0 C25.406326293945 0.65625 25.218826293945 1.15625 24.843826293945 1.515625 C24.484451293945 1.890625 24.000076293945 2.0625 23.375076293945 2.0625 C22.937576293945 2.0625 22.531326293945 1.96875 22.171951293945 1.75 C21.796951293945 1.546875 21.484451293945 1.265625 21.234451293945 0.90625 L19.843826293945 2.0625 C20.171951293945 2.59375 20.656326293945 3.03125 21.281326293945 3.359375 ZM24.484451293945 -1.984375 C24.187576293945 -1.8125 23.859451293945 -1.71875 23.515701293945 -1.71875 C23.156326293945 -1.71875 22.828201293945 -1.8125 22.531326293945 -1.984375 C22.218826293945 -2.15625 21.984451293945 -2.40625 21.812576293945 -2.71875 C21.640701293945 -3.03125 21.546951293945 -3.390625 21.546951293945 -3.78125 C21.546951293945 -4.1875 21.640701293945 -4.53125 21.812576293945 -4.84375 C21.984451293945 -5.15625 22.218826293945 -5.40625 22.531326293945 -5.59375 C22.828201293945 -5.765625 23.156326293945 -5.84375 23.515701293945 -5.84375 C23.859451293945 -5.84375 24.187576293945 -5.765625 24.484451293945 -5.59375 C24.781326293945 -5.40625 25.031326293945 -5.15625 25.203201293945 -4.84375 C25.375076293945 -4.53125 25.468826293945 -4.1875 25.468826293945 -3.78125 C25.468826293945 -3.390625 25.375076293945 -3.03125 25.203201293945 -2.71875 C25.031326293945 -2.40625 24.781326293945 -2.15625 24.484451293945 -1.984375 ZM30.296981811523 -0.328125 C30.843856811523 0 31.421981811523 0.15625 32.062606811523 0.15625 C32.531356811523 0.15625 32.953231811523 0.0625 33.343856811523 -0.109375 C33.734481811523 -0.28125 34.078231811523 -0.546875 34.359481811523 -0.90625 L34.359481811523 0 L36.468856811523 0 L36.468856811523 -7.5 L34.359481811523 -7.5 L34.359481811523 -6.59375 C34.078231811523 -6.9375 33.734481811523 -7.203125 33.343856811523 -7.375 C32.953231811523 -7.546875 32.531356811523 -7.65625 32.062606811523 -7.65625 C31.421981811523 -7.65625 30.843856811523 -7.484375 30.296981811523 -7.15625 C29.750106811523 -6.84375 29.328231811523 -6.390625 29.000106811523 -5.796875 C28.671981811523 -5.203125 28.515731811523 -4.53125 28.515731811523 -3.75 C28.515731811523 -2.96875 28.671981811523 -2.28125 29.000106811523 -1.703125 C29.328231811523 -1.09375 29.750106811523 -0.65625 30.296981811523 -0.328125 ZM33.531356811523 -1.90625 C33.234481811523 -1.734375 32.906356811523 -1.65625 32.562606811523 -1.65625 C32.203231811523 -1.65625 31.875106811523 -1.734375 31.578231811523 -1.90625 C31.281356811523 -2.09375 31.046981811523 -2.328125 30.875106811523 -2.65625 C30.703231811523 -2.96875 30.609481811523 -3.34375 30.609481811523 -3.75 C30.609481811523 -4.15625 30.703231811523 -4.515625 30.875106811523 -4.84375 C31.046981811523 -5.15625 31.281356811523 -5.40625 31.578231811523 -5.59375 C31.875106811523 -5.765625 32.203231811523 -5.84375 32.562606811523 -5.84375 C32.906356811523 -5.84375 33.234481811523 -5.765625 33.531356811523 -5.59375 C33.843856811523 -5.40625 34.078231811523 -5.15625 34.250106811523 -4.84375 C34.421981811523 -4.515625 34.515731811523 -4.15625 34.515731811523 -3.75 C34.515731811523 -3.34375 34.421981811523 -2.96875 34.250106811523 -2.65625 C34.078231811523 -2.328125 33.843856811523 -2.09375 33.531356811523 -1.90625 ZM39.718887329102 -0.328125 C40.328262329102 0 40.984512329102 0.15625 41.718887329102 0.15625 C42.468887329102 0.15625 43.156387329102 -0.015625 43.781387329102 -0.359375 C44.390762329102 -0.71875 44.843887329102 -1.1875 45.156387329102 -1.78125 L43.468887329102 -2.765625 C43.297012329102 -2.4375 43.062637329102 -2.171875 42.765762329102 -2 C42.453262329102 -1.8125 42.109512329102 -1.71875 41.750137329102 -1.71875 C41.406387329102 -1.71875 41.078262329102 -1.796875 40.781387329102 -1.96875 C40.468887329102 -2.15625 40.234512329102 -2.390625 40.062637329102 -2.703125 C39.890762329102 -3 39.797012329102 -3.34375 39.797012329102 -3.75 C39.797012329102 -4.140625 39.890762329102 -4.484375 40.062637329102 -4.796875 C40.234512329102 -5.09375 40.468887329102 -5.34375 40.781387329102 -5.515625 C41.078262329102 -5.6875 41.406387329102 -5.78125 41.750137329102 -5.78125 C42.109512329102 -5.78125 42.453262329102 -5.671875 42.765762329102 -5.5 C43.062637329102 -5.3125 43.297012329102 -5.0625 43.468887329102 -4.734375 L45.156387329102 -5.71875 C44.843887329102 -6.296875 44.390762329102 -6.78125 43.781387329102 -7.125 C43.156387329102 -7.46875 42.468887329102 -7.65625 41.718887329102 -7.65625 C41.000137329102 -7.65625 40.328262329102 -7.484375 39.718887329102 -7.15625 C39.093887329102 -6.84375 38.609512329102 -6.390625 38.250137329102 -5.796875 C37.875137329102 -5.203125 37.703262329102 -4.53125 37.703262329102 -3.75 C37.703262329102 -2.96875 37.875137329102 -2.28125 38.250137329102 -1.703125 C38.609512329102 -1.09375 39.093887329102 -0.65625 39.718887329102 -0.328125 ZM47.96891784668 -0.328125 C48.59391784668 0 49.26579284668 0.15625 50.00016784668 0.15625 C50.71891784668 0.15625 51.40641784668 0 52.03141784668 -0.328125 C52.64079284668 -0.65625 53.12516784668 -1.09375 53.50016784668 -1.703125 C53.85954284668 -2.28125 54.04704284668 -2.96875 54.04704284668 -3.75 C54.04704284668 -4.53125 53.85954284668 -5.203125 53.50016784668 -5.796875 C53.12516784668 -6.390625 52.64079284668 -6.84375 52.03141784668 -7.15625 C51.40641784668 -7.484375 50.71891784668 -7.65625 50.00016784668 -7.65625 C49.26579284668 -7.65625 48.59391784668 -7.484375 47.96891784668 -7.15625 C47.34391784668 -6.84375 46.85954284668 -6.390625 46.50016784668 -5.796875 C46.12516784668 -5.203125 45.95329284668 -4.53125 45.95329284668 -3.75 C45.95329284668 -2.96875 46.12516784668 -2.28125 46.50016784668 -1.703125 C46.85954284668 -1.09375 47.34391784668 -0.65625 47.96891784668 -0.328125 ZM50.96891784668 -1.96875 C50.67204284668 -1.796875 50.34391784668 -1.71875 50.00016784668 -1.71875 C49.65641784668 -1.71875 49.32829284668 -1.796875 49.03141784668 -1.96875 C48.71891784668 -2.15625 48.48454284668 -2.390625 48.31266784668 -2.703125 C48.14079284668 -3 48.04704284668 -3.34375 48.04704284668 -3.75 C48.04704284668 -4.140625 48.14079284668 -4.484375 48.31266784668 -4.796875 C48.48454284668 -5.09375 48.71891784668 -5.34375 49.03141784668 -5.515625 C49.32829284668 -5.6875 49.65641784668 -5.78125 50.00016784668 -5.78125 C50.34391784668 -5.78125 50.67204284668 -5.6875 50.96891784668 -5.515625 C51.28141784668 -5.34375 51.51579284668 -5.09375 51.68766784668 -4.796875 C51.85954284668 -4.484375 51.95329284668 -4.140625 51.95329284668 -3.75 C51.95329284668 -3.34375 51.85954284668 -3 51.68766784668 -2.703125 C51.51579284668 -2.390625 51.28141784668 -2.15625 50.96891784668 -1.96875 ZM62.078338623047 -11.25 L57.718963623047 0 L60.047088623047 0 L60.968963623047 -2.46875 L65.593963623047 -2.46875 L66.500213623047 0 L68.906463623047 0 L64.547088623047 -11.25 L62.078338623047 -11.25 ZM64.937713623047 -4.28125 L61.609588623047 -4.28125 L63.281463623047 -8.796875 L64.937713623047 -4.28125 ZM73.062759399414 -11.25 L69.422134399414 3.75 L71.562759399414 3.75 L75.203384399414 -11.25 L73.062759399414 -11.25 ZM77.734664916992 -0.515625 C78.531539916992 -0.03125 79.469039916992 0.1875 80.547164916992 0.1875 C81.328414916992 0.1875 82.031539916992 0.0625 82.672164916992 -0.203125 C83.328414916992 -0.46875 83.844039916992 -0.84375 84.219039916992 -1.359375 C84.594039916992 -1.859375 84.797164916992 -2.46875 84.797164916992 -3.171875 C84.797164916992 -3.84375 84.625289916992 -4.40625 84.281539916992 -4.859375 C83.922164916992 -5.3125 83.515914916992 -5.671875 83.031539916992 -5.9375 C82.531539916992 -6.203125 81.906539916992 -6.46875 81.156539916992 -6.78125 C80.578414916992 -7 80.140914916992 -7.171875 79.844039916992 -7.3125 C79.562789916992 -7.453125 79.344039916992 -7.609375 79.156539916992 -7.78125 C78.984664916992 -7.96875 78.906539916992 -8.1875 78.906539916992 -8.4375 C78.906539916992 -8.78125 79.031539916992 -9.046875 79.344039916992 -9.28125 C79.640914916992 -9.484375 80.015914916992 -9.59375 80.469039916992 -9.59375 C80.906539916992 -9.59375 81.344039916992 -9.484375 81.765914916992 -9.28125 C82.172164916992 -9.046875 82.531539916992 -8.78125 82.812789916992 -8.484375 L84.328414916992 -9.78125 C83.844039916992 -10.3125 83.297164916992 -10.71875 82.656539916992 -11 C82.000289916992 -11.28125 81.312789916992 -11.4375 80.562789916992 -11.4375 C79.828414916992 -11.4375 79.156539916992 -11.296875 78.562789916992 -11.03125 C77.969039916992 -10.765625 77.500289916992 -10.390625 77.156539916992 -9.90625 C76.812789916992 -9.4375 76.656539916992 -8.890625 76.656539916992 -8.28125 C76.656539916992 -7.515625 76.890914916992 -6.90625 77.359664916992 -6.4375 C77.844039916992 -5.96875 78.500289916992 -5.5625 79.344039916992 -5.21875 L80.125289916992 -4.90625 C80.687789916992 -4.671875 81.125289916992 -4.484375 81.437789916992 -4.34375 C81.750289916992 -4.1875 82.015914916992 -4 82.219039916992 -3.78125 C82.437789916992 -3.546875 82.547164916992 -3.296875 82.547164916992 -3 C82.547164916992 -2.59375 82.375289916992 -2.28125 82.031539916992 -2.03125 C81.672164916992 -1.78125 81.219039916992 -1.671875 80.687789916992 -1.671875 C80.031539916992 -1.671875 79.406539916992 -1.84375 78.828414916992 -2.21875 C78.250289916992 -2.578125 77.765914916992 -3.03125 77.390914916992 -3.578125 L75.797164916992 -2.21875 C76.297164916992 -1.546875 76.953414916992 -0.96875 77.734664916992 -0.515625 Z" transform="translate(108.0701675415039,19.75006103515625)"/><path fill="#ffffff" d="M8.328125 -9 L7.125 -9 L7.125 -5.15625 L2.1875 -5.15625 L2.1875 -9 L0.984375 -9 L0.984375 0 L2.1875 0 L2.1875 -4.078125 L7.125 -4.078125 L7.125 0 L8.328125 0 L8.328125 -9 ZM10.174987792969 -6 L10.174987792969 0 L11.284362792969 0 L11.284362792969 -6 L10.174987792969 -6 ZM10.221862792969 -7.515625 C10.362487792969 -7.375 10.534362792969 -7.3125 10.737487792969 -7.3125 C10.924987792969 -7.3125 11.096862792969 -7.375 11.237487792969 -7.515625 C11.378112792969 -7.640625 11.456237792969 -7.8125 11.456237792969 -8.03125 C11.456237792969 -8.234375 11.378112792969 -8.40625 11.237487792969 -8.546875 C11.096862792969 -8.6875 10.924987792969 -8.75 10.737487792969 -8.75 C10.534362792969 -8.75 10.362487792969 -8.6875 10.221862792969 -8.546875 C10.081237792969 -8.40625 10.003112792969 -8.234375 10.003112792969 -8.03125 C10.003112792969 -7.8125 10.081237792969 -7.640625 10.221862792969 -7.515625 ZM14.040603637695 2.6875 C14.524978637695 2.953125 15.087478637695 3.09375 15.696853637695 3.09375 C16.274978637695 3.09375 16.806228637695 2.96875 17.259353637695 2.734375 C17.712478637695 2.484375 18.087478637695 2.15625 18.353103637695 1.6875 C18.603103637695 1.234375 18.743728637695 0.703125 18.743728637695 0.09375 L18.743728637695 -6 L17.634353637695 -6 L17.634353637695 -4.984375 C17.384353637695 -5.34375 17.071853637695 -5.625 16.696853637695 -5.8125 C16.337478637695 -6.015625 15.915603637695 -6.125 15.478103637695 -6.125 C14.946853637695 -6.125 14.462478637695 -5.984375 14.024978637695 -5.734375 C13.587478637695 -5.46875 13.212478637695 -5.09375 12.962478637695 -4.625 C12.696853637695 -4.15625 12.571853637695 -3.625 12.571853637695 -3.03125 C12.571853637695 -2.4375 12.696853637695 -1.890625 12.962478637695 -1.421875 C13.212478637695 -0.953125 13.587478637695 -0.59375 14.024978637695 -0.328125 C14.462478637695 -0.0625 14.946853637695 0.0625 15.478103637695 0.0625 C15.915603637695 0.0625 16.337478637695 -0.046875 16.696853637695 -0.234375 C17.071853637695 -0.4375 17.384353637695 -0.71875 17.665603637695 -1.09375 L17.665603637695 0 C17.665603637695 0.671875 17.478103637695 1.1875 17.118728637695 1.5625 C16.759353637695 1.9375 16.274978637695 2.125 15.681228637695 2.125 C15.243728637695 2.125 14.853103637695 2.015625 14.524978637695 1.8125 C14.181228637695 1.625 13.915603637695 1.34375 13.712478637695 1.015625 L12.931228637695 1.59375 C13.181228637695 2.046875 13.556228637695 2.40625 14.040603637695 2.6875 ZM16.712478637695 -1.15625 C16.415603637695 -0.96875 16.071853637695 -0.875 15.712478637695 -0.875 C15.337478637695 -0.875 14.993728637695 -0.96875 14.696853637695 -1.15625 C14.384353637695 -1.328125 14.134353637695 -1.578125 13.962478637695 -1.90625 C13.774978637695 -2.234375 13.696853637695 -2.59375 13.696853637695 -3.015625 C13.696853637695 -3.4375 13.774978637695 -3.796875 13.962478637695 -4.125 C14.134353637695 -4.4375 14.384353637695 -4.703125 14.696853637695 -4.875 C14.993728637695 -5.0625 15.337478637695 -5.15625 15.712478637695 -5.15625 C16.071853637695 -5.15625 16.415603637695 -5.0625 16.712478637695 -4.875 C17.024978637695 -4.703125 17.274978637695 -4.4375 17.446853637695 -4.125 C17.634353637695 -3.796875 17.712478637695 -3.4375 17.712478637695 -3.015625 C17.712478637695 -2.59375 17.634353637695 -2.234375 17.446853637695 -1.90625 C17.274978637695 -1.578125 17.024978637695 -1.328125 16.712478637695 -1.15625 ZM20.412475585938 -9 L20.412475585938 0 L21.537475585938 0 L21.537475585938 -3.34375 C21.537475585938 -3.6875 21.599975585938 -3.984375 21.740600585938 -4.265625 C21.881225585938 -4.546875 22.084350585938 -4.78125 22.334350585938 -4.9375 C22.584350585938 -5.09375 22.881225585938 -5.1875 23.193725585938 -5.1875 C23.631225585938 -5.1875 23.974975585938 -5.03125 24.240600585938 -4.75 C24.506225585938 -4.453125 24.631225585938 -4.0625 24.631225585938 -3.546875 L24.631225585938 0 L25.756225585938 0 L25.756225585938 -3.734375 C25.756225585938 -4.203125 25.662475585938 -4.625 25.474975585938 -4.984375 C25.303100585938 -5.34375 25.037475585938 -5.625 24.709350585938 -5.8125 C24.365600585938 -6.015625 23.974975585938 -6.125 23.537475585938 -6.125 C22.662475585938 -6.125 21.990600585938 -5.703125 21.537475585938 -4.875 L21.537475585938 -9 L20.412475585938 -9 ZM32.937469482422 -2.6875 L32.937469482422 -2.90625 C32.937469482422 -3.546875 32.812469482422 -4.109375 32.562469482422 -4.59375 C32.312469482422 -5.078125 31.968719482422 -5.453125 31.531219482422 -5.71875 C31.093719482422 -5.984375 30.578094482422 -6.125 30.015594482422 -6.125 C29.437469482422 -6.125 28.906219482422 -5.984375 28.437469482422 -5.703125 C27.953094482422 -5.4375 27.593719482422 -5.0625 27.312469482422 -4.59375 C27.046844482422 -4.125 26.921844482422 -3.59375 26.921844482422 -3 C26.921844482422 -2.40625 27.062469482422 -1.859375 27.343719482422 -1.375 C27.624969482422 -0.90625 27.999969482422 -0.53125 28.484344482422 -0.265625 C28.953094482422 -0.015625 29.499969482422 0.125 30.093719482422 0.125 C30.624969482422 0.125 31.109344482422 0.015625 31.546844482422 -0.203125 C31.984344482422 -0.40625 32.359344482422 -0.703125 32.656219482422 -1.0625 L31.937469482422 -1.6875 C31.703094482422 -1.40625 31.437469482422 -1.203125 31.124969482422 -1.046875 C30.812469482422 -0.890625 30.484344482422 -0.8125 30.124969482422 -0.8125 C29.562469482422 -0.8125 29.093719482422 -0.984375 28.703094482422 -1.328125 C28.312469482422 -1.671875 28.093719482422 -2.125 28.015594482422 -2.6875 L32.937469482422 -2.6875 ZM31.812469482422 -3.453125 L28.031219482422 -3.453125 C28.109344482422 -3.96875 28.328094482422 -4.375 28.687469482422 -4.703125 C29.046844482422 -5.015625 29.468719482422 -5.1875 29.984344482422 -5.1875 C30.484344482422 -5.1875 30.906219482422 -5.015625 31.234344482422 -4.71875 C31.562469482422 -4.40625 31.765594482422 -3.984375 31.812469482422 -3.453125 ZM34.612457275391 -0.28125 C35.081207275391 -0.015625 35.612457275391 0.125 36.221832275391 0.125 C36.659332275391 0.125 37.065582275391 0.046875 37.424957275391 -0.09375 C37.799957275391 -0.234375 38.096832275391 -0.4375 38.315582275391 -0.71875 C38.534332275391 -1 38.659332275391 -1.3125 38.659332275391 -1.703125 C38.659332275391 -2.0625 38.549957275391 -2.359375 38.346832275391 -2.59375 C38.128082275391 -2.84375 37.878082275391 -3.015625 37.596832275391 -3.15625 C37.284332275391 -3.28125 36.924957275391 -3.40625 36.456207275391 -3.546875 C35.987457275391 -3.6875 35.643707275391 -3.8125 35.424957275391 -3.953125 C35.206207275391 -4.0625 35.096832275391 -4.25 35.096832275391 -4.484375 C35.096832275391 -4.703125 35.190582275391 -4.875 35.393707275391 -5.015625 C35.596832275391 -5.15625 35.846832275391 -5.21875 36.159332275391 -5.21875 C36.456207275391 -5.21875 36.721832275391 -5.15625 36.987457275391 -5.015625 C37.237457275391 -4.890625 37.440582275391 -4.71875 37.612457275391 -4.515625 L38.378082275391 -5.09375 C37.799957275391 -5.78125 37.065582275391 -6.125 36.206207275391 -6.125 C35.784332275391 -6.125 35.424957275391 -6.046875 35.096832275391 -5.90625 C34.753082275391 -5.75 34.487457275391 -5.546875 34.299957275391 -5.296875 C34.096832275391 -5.03125 34.003082275391 -4.734375 34.003082275391 -4.421875 C34.003082275391 -4.015625 34.143707275391 -3.6875 34.424957275391 -3.4375 C34.706207275391 -3.1875 35.081207275391 -2.984375 35.534332275391 -2.84375 L35.924957275391 -2.71875 C36.268707275391 -2.609375 36.549957275391 -2.515625 36.768707275391 -2.4375 C36.987457275391 -2.34375 37.159332275391 -2.234375 37.315582275391 -2.09375 C37.471832275391 -1.953125 37.549957275391 -1.796875 37.549957275391 -1.59375 C37.549957275391 -1.359375 37.424957275391 -1.15625 37.206207275391 -1.015625 C36.971832275391 -0.859375 36.674957275391 -0.796875 36.331207275391 -0.796875 C35.893707275391 -0.796875 35.487457275391 -0.890625 35.143707275391 -1.109375 C34.815582275391 -1.328125 34.549957275391 -1.59375 34.362457275391 -1.890625 L33.565582275391 -1.28125 C33.799957275391 -0.875 34.159332275391 -0.546875 34.612457275391 -0.28125 ZM43.531204223633 -0.15625 L43.374954223633 -1.046875 C43.062454223633 -0.921875 42.796829223633 -0.875 42.562454223633 -0.875 C42.187454223633 -0.875 41.874954223633 -0.984375 41.687454223633 -1.234375 C41.468704223633 -1.484375 41.374954223633 -1.828125 41.374954223633 -2.296875 L41.374954223633 -5.0625 L43.499954223633 -5.0625 L43.499954223633 -6 L41.374954223633 -6 L41.374954223633 -7.96875 L40.249954223633 -7.625 L40.249954223633 -6 L39.156204223633 -6 L39.156204223633 -5.0625 L40.249954223633 -5.0625 L40.249954223633 -2.171875 C40.249954223633 -1.453125 40.437454223633 -0.90625 40.796829223633 -0.5 C41.156204223633 -0.09375 41.671829223633 0.09375 42.312454223633 0.09375 C42.718704223633 0.09375 43.124954223633 0.015625 43.531204223633 -0.15625 ZM48.065567016602 -0.265625 C48.534317016602 -0.015625 49.065567016602 0.125 49.643692016602 0.125 C50.221817016602 0.125 50.753067016602 -0.015625 51.253067016602 -0.296875 C51.737442016602 -0.578125 52.096817016602 -0.953125 52.362442016602 -1.4375 L51.471817016602 -1.953125 C51.284317016602 -1.625 51.034317016602 -1.359375 50.706192016602 -1.171875 C50.393692016602 -0.96875 50.034317016602 -0.875 49.643692016602 -0.875 C49.268692016602 -0.875 48.924942016602 -0.96875 48.612442016602 -1.15625 C48.299942016602 -1.328125 48.049942016602 -1.578125 47.862442016602 -1.90625 C47.674942016602 -2.21875 47.596817016602 -2.59375 47.596817016602 -3 C47.596817016602 -3.40625 47.674942016602 -3.765625 47.862442016602 -4.09375 C48.049942016602 -4.40625 48.299942016602 -4.671875 48.612442016602 -4.84375 C48.924942016602 -5.03125 49.268692016602 -5.125 49.643692016602 -5.125 C50.034317016602 -5.125 50.393692016602 -5.015625 50.706192016602 -4.828125 C51.034317016602 -4.640625 51.284317016602 -4.375 51.471817016602 -4.046875 L52.362442016602 -4.5625 C52.096817016602 -5.046875 51.737442016602 -5.421875 51.253067016602 -5.703125 C50.753067016602 -5.984375 50.221817016602 -6.125 49.643692016602 -6.125 C49.065567016602 -6.125 48.534317016602 -5.984375 48.065567016602 -5.71875 C47.565567016602 -5.453125 47.174942016602 -5.09375 46.893692016602 -4.609375 C46.612442016602 -4.125 46.471817016602 -3.59375 46.471817016602 -3 C46.471817016602 -2.40625 46.612442016602 -1.859375 46.893692016602 -1.375 C47.174942016602 -0.90625 47.565567016602 -0.53125 48.065567016602 -0.265625 ZM55.181182861328 -4.6875 C55.337432861328 -4.53125 55.524932861328 -4.453125 55.759307861328 -4.453125 C55.993682861328 -4.453125 56.181182861328 -4.53125 56.337432861328 -4.6875 C56.493682861328 -4.8125 56.571807861328 -5.015625 56.571807861328 -5.265625 C56.571807861328 -5.515625 56.493682861328 -5.703125 56.337432861328 -5.84375 C56.165557861328 -6 55.978057861328 -6.078125 55.759307861328 -6.078125 C55.524932861328 -6.078125 55.337432861328 -6 55.181182861328 -5.84375 C55.024932861328 -5.703125 54.946807861328 -5.515625 54.946807861328 -5.265625 C54.946807861328 -5.015625 55.024932861328 -4.8125 55.181182861328 -4.6875 ZM53.462432861328 -6 L53.462432861328 0 L54.571807861328 0 L54.571807861328 -6 L53.462432861328 -6 ZM63.237426757812 -2.6875 L63.237426757812 -2.90625 C63.237426757812 -3.546875 63.112426757812 -4.109375 62.862426757812 -4.59375 C62.612426757812 -5.078125 62.268676757812 -5.453125 61.831176757812 -5.71875 C61.393676757812 -5.984375 60.878051757812 -6.125 60.315551757812 -6.125 C59.737426757812 -6.125 59.206176757812 -5.984375 58.737426757812 -5.703125 C58.253051757812 -5.4375 57.893676757812 -5.0625 57.612426757812 -4.59375 C57.346801757812 -4.125 57.221801757812 -3.59375 57.221801757812 -3 C57.221801757812 -2.40625 57.362426757812 -1.859375 57.643676757812 -1.375 C57.924926757812 -0.90625 58.299926757812 -0.53125 58.784301757812 -0.265625 C59.253051757812 -0.015625 59.799926757812 0.125 60.393676757812 0.125 C60.924926757812 0.125 61.409301757812 0.015625 61.846801757812 -0.203125 C62.284301757812 -0.40625 62.659301757812 -0.703125 62.956176757812 -1.0625 L62.237426757812 -1.6875 C62.003051757812 -1.40625 61.737426757812 -1.203125 61.424926757812 -1.046875 C61.112426757812 -0.890625 60.784301757812 -0.8125 60.424926757812 -0.8125 C59.862426757812 -0.8125 59.393676757812 -0.984375 59.003051757812 -1.328125 C58.612426757812 -1.671875 58.393676757812 -2.125 58.315551757812 -2.6875 L63.237426757812 -2.6875 ZM62.112426757812 -3.453125 L58.331176757812 -3.453125 C58.409301757812 -3.96875 58.628051757812 -4.375 58.987426757812 -4.703125 C59.346801757812 -5.015625 59.768676757812 -5.1875 60.284301757812 -5.1875 C60.784301757812 -5.1875 61.206176757812 -5.015625 61.534301757812 -4.71875 C61.862426757812 -4.40625 62.065551757812 -3.984375 62.112426757812 -3.453125 ZM65.396789550781 -0.265625 C65.834289550781 -0.015625 66.318664550781 0.125 66.849914550781 0.125 C67.287414550781 0.125 67.693664550781 0.015625 68.068664550781 -0.1875 C68.443664550781 -0.375 68.756164550781 -0.671875 69.006164550781 -1.046875 L69.006164550781 0 L70.115539550781 0 L70.115539550781 -9 L69.006164550781 -9 L69.006164550781 -4.96875 C68.756164550781 -5.328125 68.443664550781 -5.625 68.084289550781 -5.8125 C67.709289550781 -6.015625 67.303039550781 -6.125 66.849914550781 -6.125 C66.318664550781 -6.125 65.834289550781 -5.984375 65.396789550781 -5.71875 C64.943664550781 -5.453125 64.599914550781 -5.09375 64.334289550781 -4.625 C64.084289550781 -4.140625 63.943664550781 -3.59375 63.943664550781 -3 C63.943664550781 -2.390625 64.084289550781 -1.84375 64.334289550781 -1.375 C64.599914550781 -0.90625 64.943664550781 -0.53125 65.396789550781 -0.265625 ZM68.084289550781 -1.125 C67.787414550781 -0.9375 67.443664550781 -0.84375 67.084289550781 -0.84375 C66.709289550781 -0.84375 66.365539550781 -0.9375 66.068664550781 -1.125 C65.756164550781 -1.296875 65.521789550781 -1.546875 65.334289550781 -1.875 C65.162414550781 -2.203125 65.068664550781 -2.578125 65.068664550781 -3 C65.068664550781 -3.40625 65.162414550781 -3.78125 65.334289550781 -4.109375 C65.521789550781 -4.4375 65.756164550781 -4.703125 66.068664550781 -4.875 C66.365539550781 -5.0625 66.709289550781 -5.15625 67.084289550781 -5.15625 C67.443664550781 -5.15625 67.787414550781 -5.0625 68.084289550781 -4.875 C68.396789550781 -4.703125 68.646789550781 -4.4375 68.818664550781 -4.109375 C69.006164550781 -3.78125 69.084289550781 -3.40625 69.084289550781 -3 C69.084289550781 -2.578125 69.006164550781 -2.203125 68.818664550781 -1.875 C68.646789550781 -1.546875 68.396789550781 -1.296875 68.084289550781 -1.125 ZM71.824905395508 -6 L71.824905395508 0 L72.934280395508 0 L72.934280395508 -6 L71.824905395508 -6 ZM71.871780395508 -7.515625 C72.012405395508 -7.375 72.184280395508 -7.3125 72.387405395508 -7.3125 C72.574905395508 -7.3125 72.746780395508 -7.375 72.887405395508 -7.515625 C73.028030395508 -7.640625 73.106155395508 -7.8125 73.106155395508 -8.03125 C73.106155395508 -8.234375 73.028030395508 -8.40625 72.887405395508 -8.546875 C72.746780395508 -8.6875 72.574905395508 -8.75 72.387405395508 -8.75 C72.184280395508 -8.75 72.012405395508 -8.6875 71.871780395508 -8.546875 C71.731155395508 -8.40625 71.653030395508 -8.234375 71.653030395508 -8.03125 C71.653030395508 -7.8125 71.731155395508 -7.640625 71.871780395508 -7.515625 ZM78.331146240234 -0.15625 L78.174896240234 -1.046875 C77.862396240234 -0.921875 77.596771240234 -0.875 77.362396240234 -0.875 C76.987396240234 -0.875 76.674896240234 -0.984375 76.487396240234 -1.234375 C76.268646240234 -1.484375 76.174896240234 -1.828125 76.174896240234 -2.296875 L76.174896240234 -5.0625 L78.299896240234 -5.0625 L78.299896240234 -6 L76.174896240234 -6 L76.174896240234 -7.96875 L75.049896240234 -7.625 L75.049896240234 -6 L73.956146240234 -6 L73.956146240234 -5.0625 L75.049896240234 -5.0625 L75.049896240234 -2.171875 C75.049896240234 -1.453125 75.237396240234 -0.90625 75.596771240234 -0.5 C75.956146240234 -0.09375 76.471771240234 0.09375 77.112396240234 0.09375 C77.518646240234 0.09375 77.924896240234 0.015625 78.331146240234 -0.15625 ZM78.653015136719 -6 L80.465515136719 0 L81.793640136719 0 L83.324890136719 -4.421875 L84.871765136719 0 L86.184265136719 0 L87.996765136719 -6 L86.887390136719 -6 L85.496765136719 -1.3125 L83.856140136719 -6 L82.840515136719 -6 L81.215515136719 -1.3125 L79.809265136719 -6 L78.653015136719 -6 ZM90.21549987793 -0.265625 C90.68424987793 -0.015625 91.21549987793 0.125 91.79362487793 0.125 C92.37174987793 0.125 92.90299987793 -0.015625 93.38737487793 -0.265625 C93.87174987793 -0.53125 94.26237487793 -0.90625 94.54362487793 -1.375 C94.82487487793 -1.859375 94.98112487793 -2.40625 94.98112487793 -3 C94.98112487793 -3.59375 94.82487487793 -4.125 94.54362487793 -4.609375 C94.26237487793 -5.09375 93.87174987793 -5.453125 93.38737487793 -5.71875 C92.90299987793 -5.984375 92.37174987793 -6.125 91.79362487793 -6.125 C91.21549987793 -6.125 90.68424987793 -5.984375 90.21549987793 -5.71875 C89.71549987793 -5.453125 89.32487487793 -5.09375 89.04362487793 -4.609375 C88.76237487793 -4.125 88.62174987793 -3.59375 88.62174987793 -3 C88.62174987793 -2.40625 88.76237487793 -1.859375 89.04362487793 -1.375 C89.32487487793 -0.90625 89.71549987793 -0.53125 90.21549987793 -0.265625 ZM92.82487487793 -1.15625 C92.51237487793 -0.96875 92.16862487793 -0.875 91.79362487793 -0.875 C91.41862487793 -0.875 91.07487487793 -0.96875 90.76237487793 -1.15625 C90.44987487793 -1.328125 90.19987487793 -1.578125 90.01237487793 -1.90625 C89.82487487793 -2.21875 89.74674987793 -2.59375 89.74674987793 -3 C89.74674987793 -3.40625 89.82487487793 -3.765625 90.01237487793 -4.09375 C90.19987487793 -4.40625 90.44987487793 -4.671875 90.76237487793 -4.84375 C91.07487487793 -5.03125 91.41862487793 -5.125 91.79362487793 -5.125 C92.16862487793 -5.125 92.51237487793 -5.03125 92.82487487793 -4.84375 C93.15299987793 -4.671875 93.40299987793 -4.40625 93.57487487793 -4.09375 C93.76237487793 -3.765625 93.85612487793 -3.40625 93.85612487793 -3 C93.85612487793 -2.59375 93.76237487793 -2.21875 93.57487487793 -1.90625 C93.40299987793 -1.578125 93.15299987793 -1.328125 92.82487487793 -1.15625 ZM97.931121826172 -4.6875 C98.087371826172 -4.53125 98.274871826172 -4.453125 98.509246826172 -4.453125 C98.743621826172 -4.453125 98.931121826172 -4.53125 99.087371826172 -4.6875 C99.243621826172 -4.8125 99.321746826172 -5.015625 99.321746826172 -5.265625 C99.321746826172 -5.515625 99.243621826172 -5.703125 99.087371826172 -5.84375 C98.915496826172 -6 98.727996826172 -6.078125 98.509246826172 -6.078125 C98.274871826172 -6.078125 98.087371826172 -6 97.931121826172 -5.84375 C97.774871826172 -5.703125 97.696746826172 -5.515625 97.696746826172 -5.265625 C97.696746826172 -5.015625 97.774871826172 -4.8125 97.931121826172 -4.6875 ZM96.212371826172 -6 L96.212371826172 0 L97.321746826172 0 L97.321746826172 -6 L96.212371826172 -6 ZM104.081115722656 -0.15625 L103.924865722656 -1.046875 C103.612365722656 -0.921875 103.346740722656 -0.875 103.112365722656 -0.875 C102.737365722656 -0.875 102.424865722656 -0.984375 102.237365722656 -1.234375 C102.018615722656 -1.484375 101.924865722656 -1.828125 101.924865722656 -2.296875 L101.924865722656 -5.0625 L104.049865722656 -5.0625 L104.049865722656 -6 L101.924865722656 -6 L101.924865722656 -7.96875 L100.799865722656 -7.625 L100.799865722656 -6 L99.706115722656 -6 L99.706115722656 -5.0625 L100.799865722656 -5.0625 L100.799865722656 -2.171875 C100.799865722656 -1.453125 100.987365722656 -0.90625 101.346740722656 -0.5 C101.706115722656 -0.09375 102.221740722656 0.09375 102.862365722656 0.09375 C103.268615722656 0.09375 103.674865722656 0.015625 104.081115722656 -0.15625 ZM105.012359619141 -9 L105.012359619141 0 L106.137359619141 0 L106.137359619141 -3.34375 C106.137359619141 -3.6875 106.199859619141 -3.984375 106.340484619141 -4.265625 C106.481109619141 -4.546875 106.684234619141 -4.78125 106.934234619141 -4.9375 C107.184234619141 -5.09375 107.481109619141 -5.1875 107.793609619141 -5.1875 C108.231109619141 -5.1875 108.574859619141 -5.03125 108.840484619141 -4.75 C109.106109619141 -4.453125 109.231109619141 -4.0625 109.231109619141 -3.546875 L109.231109619141 0 L110.356109619141 0 L110.356109619141 -3.734375 C110.356109619141 -4.203125 110.262359619141 -4.625 110.074859619141 -4.984375 C109.902984619141 -5.34375 109.637359619141 -5.625 109.309234619141 -5.8125 C108.965484619141 -6.015625 108.574859619141 -6.125 108.137359619141 -6.125 C107.262359619141 -6.125 106.590484619141 -5.703125 106.137359619141 -4.875 L106.137359619141 -9 L105.012359619141 -9 ZM111.974853515625 -6 L111.974853515625 0 L113.084228515625 0 L113.084228515625 -6 L111.974853515625 -6 ZM112.021728515625 -7.515625 C112.162353515625 -7.375 112.334228515625 -7.3125 112.537353515625 -7.3125 C112.724853515625 -7.3125 112.896728515625 -7.375 113.037353515625 -7.515625 C113.177978515625 -7.640625 113.256103515625 -7.8125 113.256103515625 -8.03125 C113.256103515625 -8.234375 113.177978515625 -8.40625 113.037353515625 -8.546875 C112.896728515625 -8.6875 112.724853515625 -8.75 112.537353515625 -8.75 C112.334228515625 -8.75 112.162353515625 -8.6875 112.021728515625 -8.546875 C111.881103515625 -8.40625 111.802978515625 -8.234375 111.802978515625 -8.03125 C111.802978515625 -7.8125 111.881103515625 -7.640625 112.021728515625 -7.515625 ZM114.762344360352 -6 L114.762344360352 0 L115.887344360352 0 L115.887344360352 -3.34375 C115.887344360352 -3.6875 115.949844360352 -4 116.090469360352 -4.28125 C116.231094360352 -4.5625 116.434219360352 -4.78125 116.684219360352 -4.9375 C116.934219360352 -5.09375 117.231094360352 -5.1875 117.543594360352 -5.1875 C117.981094360352 -5.1875 118.324844360352 -5.03125 118.590469360352 -4.734375 C118.856094360352 -4.453125 118.981094360352 -4.046875 118.981094360352 -3.53125 L118.981094360352 0 L120.106094360352 0 L120.106094360352 -3.703125 C120.106094360352 -4.1875 120.012344360352 -4.609375 119.824844360352 -4.96875 C119.652969360352 -5.328125 119.387344360352 -5.625 119.059219360352 -5.8125 C118.731094360352 -6.015625 118.340469360352 -6.125 117.887344360352 -6.125 C117.012344360352 -6.125 116.324844360352 -5.703125 115.856094360352 -4.875 L115.856094360352 -6 L114.762344360352 -6 ZM127.287338256836 -2.6875 L127.287338256836 -2.90625 C127.287338256836 -3.546875 127.162338256836 -4.109375 126.912338256836 -4.59375 C126.662338256836 -5.078125 126.318588256836 -5.453125 125.881088256836 -5.71875 C125.443588256836 -5.984375 124.927963256836 -6.125 124.365463256836 -6.125 C123.787338256836 -6.125 123.256088256836 -5.984375 122.787338256836 -5.703125 C122.302963256836 -5.4375 121.943588256836 -5.0625 121.662338256836 -4.59375 C121.396713256836 -4.125 121.271713256836 -3.59375 121.271713256836 -3 C121.271713256836 -2.40625 121.412338256836 -1.859375 121.693588256836 -1.375 C121.974838256836 -0.90625 122.349838256836 -0.53125 122.834213256836 -0.265625 C123.302963256836 -0.015625 123.849838256836 0.125 124.443588256836 0.125 C124.974838256836 0.125 125.459213256836 0.015625 125.896713256836 -0.203125 C126.334213256836 -0.40625 126.709213256836 -0.703125 127.006088256836 -1.0625 L126.287338256836 -1.6875 C126.052963256836 -1.40625 125.787338256836 -1.203125 125.474838256836 -1.046875 C125.162338256836 -0.890625 124.834213256836 -0.8125 124.474838256836 -0.8125 C123.912338256836 -0.8125 123.443588256836 -0.984375 123.052963256836 -1.328125 C122.662338256836 -1.671875 122.443588256836 -2.125 122.365463256836 -2.6875 L127.287338256836 -2.6875 ZM126.162338256836 -3.453125 L122.381088256836 -3.453125 C122.459213256836 -3.96875 122.677963256836 -4.375 123.037338256836 -4.703125 C123.396713256836 -5.015625 123.818588256836 -5.1875 124.334213256836 -5.1875 C124.834213256836 -5.1875 125.256088256836 -5.015625 125.584213256836 -4.71875 C125.912338256836 -4.40625 126.115463256836 -3.984375 126.162338256836 -3.453125 ZM128.962326049805 -0.28125 C129.431076049805 -0.015625 129.962326049805 0.125 130.571701049805 0.125 C131.009201049805 0.125 131.415451049805 0.046875 131.774826049805 -0.09375 C132.149826049805 -0.234375 132.446701049805 -0.4375 132.665451049805 -0.71875 C132.884201049805 -1 133.009201049805 -1.3125 133.009201049805 -1.703125 C133.009201049805 -2.0625 132.899826049805 -2.359375 132.696701049805 -2.59375 C132.477951049805 -2.84375 132.227951049805 -3.015625 131.946701049805 -3.15625 C131.634201049805 -3.28125 131.274826049805 -3.40625 130.806076049805 -3.546875 C130.337326049805 -3.6875 129.993576049805 -3.8125 129.774826049805 -3.953125 C129.556076049805 -4.0625 129.446701049805 -4.25 129.446701049805 -4.484375 C129.446701049805 -4.703125 129.540451049805 -4.875 129.743576049805 -5.015625 C129.946701049805 -5.15625 130.196701049805 -5.21875 130.509201049805 -5.21875 C130.806076049805 -5.21875 131.071701049805 -5.15625 131.337326049805 -5.015625 C131.587326049805 -4.890625 131.790451049805 -4.71875 131.962326049805 -4.515625 L132.727951049805 -5.09375 C132.149826049805 -5.78125 131.415451049805 -6.125 130.556076049805 -6.125 C130.134201049805 -6.125 129.774826049805 -6.046875 129.446701049805 -5.90625 C129.102951049805 -5.75 128.837326049805 -5.546875 128.649826049805 -5.296875 C128.446701049805 -5.03125 128.352951049805 -4.734375 128.352951049805 -4.421875 C128.352951049805 -4.015625 128.493576049805 -3.6875 128.774826049805 -3.4375 C129.056076049805 -3.1875 129.431076049805 -2.984375 129.884201049805 -2.84375 L130.274826049805 -2.71875 C130.618576049805 -2.609375 130.899826049805 -2.515625 131.118576049805 -2.4375 C131.337326049805 -2.34375 131.509201049805 -2.234375 131.665451049805 -2.09375 C131.821701049805 -1.953125 131.899826049805 -1.796875 131.899826049805 -1.59375 C131.899826049805 -1.359375 131.774826049805 -1.15625 131.556076049805 -1.015625 C131.321701049805 -0.859375 131.024826049805 -0.796875 130.681076049805 -0.796875 C130.243576049805 -0.796875 129.837326049805 -0.890625 129.493576049805 -1.109375 C129.165451049805 -1.328125 128.899826049805 -1.59375 128.712326049805 -1.890625 L127.915451049805 -1.28125 C128.149826049805 -0.875 128.509201049805 -0.546875 128.962326049805 -0.28125 ZM134.662322998047 -0.28125 C135.131072998047 -0.015625 135.662322998047 0.125 136.271697998047 0.125 C136.709197998047 0.125 137.115447998047 0.046875 137.474822998047 -0.09375 C137.849822998047 -0.234375 138.146697998047 -0.4375 138.365447998047 -0.71875 C138.584197998047 -1 138.709197998047 -1.3125 138.709197998047 -1.703125 C138.709197998047 -2.0625 138.599822998047 -2.359375 138.396697998047 -2.59375 C138.177947998047 -2.84375 137.927947998047 -3.015625 137.646697998047 -3.15625 C137.334197998047 -3.28125 136.974822998047 -3.40625 136.506072998047 -3.546875 C136.037322998047 -3.6875 135.693572998047 -3.8125 135.474822998047 -3.953125 C135.256072998047 -4.0625 135.146697998047 -4.25 135.146697998047 -4.484375 C135.146697998047 -4.703125 135.240447998047 -4.875 135.443572998047 -5.015625 C135.646697998047 -5.15625 135.896697998047 -5.21875 136.209197998047 -5.21875 C136.506072998047 -5.21875 136.771697998047 -5.15625 137.037322998047 -5.015625 C137.287322998047 -4.890625 137.490447998047 -4.71875 137.662322998047 -4.515625 L138.427947998047 -5.09375 C137.849822998047 -5.78125 137.115447998047 -6.125 136.256072998047 -6.125 C135.834197998047 -6.125 135.474822998047 -6.046875 135.146697998047 -5.90625 C134.802947998047 -5.75 134.537322998047 -5.546875 134.349822998047 -5.296875 C134.146697998047 -5.03125 134.052947998047 -4.734375 134.052947998047 -4.421875 C134.052947998047 -4.015625 134.193572998047 -3.6875 134.474822998047 -3.4375 C134.756072998047 -3.1875 135.131072998047 -2.984375 135.584197998047 -2.84375 L135.974822998047 -2.71875 C136.318572998047 -2.609375 136.599822998047 -2.515625 136.818572998047 -2.4375 C137.037322998047 -2.34375 137.209197998047 -2.234375 137.365447998047 -2.09375 C137.521697998047 -1.953125 137.599822998047 -1.796875 137.599822998047 -1.59375 C137.599822998047 -1.359375 137.474822998047 -1.15625 137.256072998047 -1.015625 C137.021697998047 -0.859375 136.724822998047 -0.796875 136.381072998047 -0.796875 C135.943572998047 -0.796875 135.537322998047 -0.890625 135.193572998047 -1.109375 C134.865447998047 -1.328125 134.599822998047 -1.59375 134.412322998047 -1.890625 L133.615447998047 -1.28125 C133.849822998047 -0.875 134.209197998047 -0.546875 134.662322998047 -0.28125 Z" transform="translate(81.13758850097656,40.35004806518555)"/><path fill="#ffffff" d="M2.84375 -0.40625 C3.578125 -0.015625 4.375 0.171875 5.25 0.171875 C6.109375 0.171875 6.90625 -0.015625 7.65625 -0.40625 C8.375 -0.796875 8.953125 -1.34375 9.40625 -2.046875 C9.828125 -2.765625 10.046875 -3.578125 10.046875 -4.5 C10.046875 -5.421875 9.828125 -6.234375 9.40625 -6.953125 C8.953125 -7.65625 8.375 -8.203125 7.65625 -8.59375 C6.90625 -8.96875 6.109375 -9.171875 5.25 -9.171875 C4.375 -9.171875 3.578125 -8.96875 2.84375 -8.59375 C2.109375 -8.203125 1.53125 -7.65625 1.09375 -6.953125 C0.65625 -6.234375 0.453125 -5.421875 0.453125 -4.5 C0.453125 -3.578125 0.65625 -2.765625 1.09375 -2.046875 C1.53125 -1.34375 2.109375 -0.796875 2.84375 -0.40625 ZM7.203125 -1.09375 C6.609375 -0.765625 5.953125 -0.59375 5.25 -0.59375 C4.546875 -0.59375 3.890625 -0.765625 3.296875 -1.09375 C2.6875 -1.421875 2.203125 -1.875 1.859375 -2.46875 C1.515625 -3.0625 1.34375 -3.734375 1.34375 -4.5 C1.34375 -5.265625 1.515625 -5.9375 1.859375 -6.515625 C2.203125 -7.109375 2.6875 -7.5625 3.296875 -7.90625 C3.890625 -8.234375 4.546875 -8.40625 5.25 -8.40625 C5.953125 -8.40625 6.609375 -8.234375 7.203125 -7.90625 C7.8125 -7.5625 8.28125 -7.109375 8.640625 -6.515625 C8.984375 -5.921875 9.171875 -5.25 9.171875 -4.5 C9.171875 -3.734375 8.984375 -3.0625 8.640625 -2.484375 C8.28125 -1.875 7.8125 -1.421875 7.203125 -1.09375 ZM4.15625 -2.3125 C4.546875 -2.09375 4.96875 -2 5.4375 -2 C5.90625 -2 6.34375 -2.109375 6.734375 -2.34375 C7.109375 -2.5625 7.40625 -2.875 7.609375 -3.25 L6.828125 -3.703125 C6.6875 -3.4375 6.5 -3.234375 6.25 -3.09375 C6 -2.953125 5.734375 -2.875 5.453125 -2.875 C5.15625 -2.875 4.90625 -2.9375 4.65625 -3.078125 C4.421875 -3.21875 4.21875 -3.40625 4.078125 -3.65625 C3.9375 -3.90625 3.875 -4.1875 3.875 -4.5 C3.875 -4.8125 3.9375 -5.09375 4.078125 -5.34375 C4.21875 -5.59375 4.421875 -5.78125 4.65625 -5.921875 C4.90625 -6.0625 5.15625 -6.125 5.453125 -6.125 C5.734375 -6.125 6 -6.046875 6.25 -5.90625 C6.5 -5.75 6.6875 -5.546875 6.828125 -5.296875 L7.609375 -5.765625 C7.40625 -6.125 7.109375 -6.4375 6.734375 -6.65625 C6.34375 -6.875 5.90625 -7 5.4375 -7 C4.984375 -7 4.546875 -6.890625 4.15625 -6.6875 C3.765625 -6.46875 3.453125 -6.171875 3.234375 -5.796875 C3 -5.40625 2.890625 -4.984375 2.890625 -4.5 C2.890625 -4.015625 3 -3.578125 3.234375 -3.203125 C3.453125 -2.8125 3.765625 -2.515625 4.15625 -2.3125 ZM13.884353637695 -9 L13.884353637695 0 L17.415603637695 0 C18.353103637695 0 19.196853637695 -0.1875 19.946853637695 -0.546875 C20.681228637695 -0.90625 21.274978637695 -1.421875 21.696853637695 -2.09375 C22.134353637695 -2.78125 22.353103637695 -3.578125 22.353103637695 -4.5 C22.353103637695 -5.421875 22.134353637695 -6.21875 21.696853637695 -6.90625 C21.274978637695 -7.578125 20.681228637695 -8.09375 19.946853637695 -8.453125 C19.196853637695 -8.8125 18.353103637695 -9 17.415603637695 -9 L13.884353637695 -9 ZM17.337478637695 -1.078125 L15.087478637695 -1.078125 L15.087478637695 -7.921875 L17.337478637695 -7.921875 C18.071853637695 -7.921875 18.728103637695 -7.78125 19.306228637695 -7.5 C19.884353637695 -7.21875 20.337478637695 -6.828125 20.665603637695 -6.3125 C20.978103637695 -5.796875 21.149978637695 -5.203125 21.149978637695 -4.5 C21.149978637695 -3.796875 20.978103637695 -3.203125 20.665603637695 -2.6875 C20.337478637695 -2.15625 19.884353637695 -1.765625 19.306228637695 -1.484375 C18.728103637695 -1.203125 18.071853637695 -1.078125 17.337478637695 -1.078125 ZM24.86247253418 -0.203125 C25.25309753418 0.015625 25.73747253418 0.125 26.25309753418 0.125 C26.76872253418 0.125 27.23747253418 0.015625 27.64372253418 -0.203125 C28.03434753418 -0.4375 28.36247253418 -0.75 28.59684753418 -1.171875 C28.83122253418 -1.59375 28.95622253418 -2.09375 28.95622253418 -2.671875 L28.95622253418 -6 L27.83122253418 -6 L27.83122253418 -2.671875 C27.83122253418 -2.09375 27.67497253418 -1.640625 27.37809753418 -1.3125 C27.08122253418 -0.984375 26.70622253418 -0.8125 26.25309753418 -0.8125 C25.78434753418 -0.8125 25.40934753418 -0.984375 25.11247253418 -1.3125 C24.81559753418 -1.640625 24.67497253418 -2.09375 24.67497253418 -2.671875 L24.67497253418 -6 L23.54997253418 -6 L23.54997253418 -2.671875 C23.54997253418 -2.09375 23.65934753418 -1.59375 23.89372253418 -1.171875 C24.12809753418 -0.75 24.45622253418 -0.4375 24.86247253418 -0.203125 ZM30.512466430664 -6 L30.512466430664 0 L31.637466430664 0 L31.637466430664 -3.34375 C31.637466430664 -3.6875 31.699966430664 -4 31.840591430664 -4.28125 C31.981216430664 -4.5625 32.184341430664 -4.78125 32.434341430664 -4.9375 C32.684341430664 -5.09375 32.981216430664 -5.1875 33.293716430664 -5.1875 C33.731216430664 -5.1875 34.074966430664 -5.03125 34.340591430664 -4.734375 C34.606216430664 -4.453125 34.731216430664 -4.046875 34.731216430664 -3.53125 L34.731216430664 0 L35.856216430664 0 L35.856216430664 -3.703125 C35.856216430664 -4.1875 35.762466430664 -4.609375 35.574966430664 -4.96875 C35.403091430664 -5.328125 35.137466430664 -5.625 34.809341430664 -5.8125 C34.481216430664 -6.015625 34.090591430664 -6.125 33.637466430664 -6.125 C32.762466430664 -6.125 32.074966430664 -5.703125 31.606216430664 -4.875 L31.606216430664 -6 L30.512466430664 -6 ZM46.484329223633 0 L48.093704223633 0 L46.296829223633 -1.796875 C46.562454223633 -2.203125 46.796829223633 -2.65625 46.968704223633 -3.171875 C47.124954223633 -3.6875 47.234329223633 -4.21875 47.265579223633 -4.796875 L46.203079223633 -4.796875 C46.156204223633 -3.953125 45.921829223633 -3.203125 45.515579223633 -2.546875 L43.015579223633 -5.015625 C42.624954223633 -5.390625 42.312454223633 -5.734375 42.093704223633 -6.046875 C41.874954223633 -6.34375 41.765579223633 -6.65625 41.765579223633 -6.984375 C41.765579223633 -7.296875 41.874954223633 -7.5625 42.093704223633 -7.796875 C42.328079223633 -8.015625 42.624954223633 -8.125 42.984329223633 -8.125 C43.312454223633 -8.125 43.624954223633 -8.015625 43.874954223633 -7.796875 C44.109329223633 -7.59375 44.328079223633 -7.3125 44.531204223633 -6.984375 L45.406204223633 -7.609375 C44.796829223633 -8.625 43.984329223633 -9.15625 42.968704223633 -9.15625 C42.499954223633 -9.15625 42.078079223633 -9.046875 41.718704223633 -8.84375 C41.359329223633 -8.625 41.078079223633 -8.34375 40.874954223633 -8.015625 C40.687454223633 -7.671875 40.578079223633 -7.296875 40.578079223633 -6.921875 C40.578079223633 -6.40625 40.765579223633 -5.90625 41.140579223633 -5.390625 C40.593704223633 -5.0625 40.156204223633 -4.703125 39.843704223633 -4.265625 C39.546829223633 -3.828125 39.390579223633 -3.34375 39.390579223633 -2.796875 C39.390579223633 -2.234375 39.531204223633 -1.734375 39.828079223633 -1.296875 C40.124954223633 -0.84375 40.531204223633 -0.484375 41.046829223633 -0.234375 C41.562454223633 0.03125 42.140579223633 0.15625 42.765579223633 0.15625 C43.281204223633 0.15625 43.781204223633 0.0625 44.265579223633 -0.125 C44.734329223633 -0.3125 45.156204223633 -0.59375 45.546829223633 -0.9375 L46.484329223633 0 ZM43.890579223633 -1.0625 C43.546829223633 -0.9375 43.203079223633 -0.859375 42.859329223633 -0.859375 C42.437454223633 -0.859375 42.062454223633 -0.953125 41.703079223633 -1.125 C41.343704223633 -1.3125 41.062454223633 -1.5625 40.859329223633 -1.875 C40.656204223633 -2.171875 40.546829223633 -2.515625 40.546829223633 -2.875 C40.546829223633 -3.25 40.656204223633 -3.578125 40.874954223633 -3.875 C41.093704223633 -4.1875 41.406204223633 -4.4375 41.796829223633 -4.65625 L42.124954223633 -4.328125 L44.812454223633 -1.65625 C44.531204223633 -1.40625 44.218704223633 -1.203125 43.890579223633 -1.0625 ZM51.534317016602 -9 L51.534317016602 0 L55.018692016602 0 C55.612442016602 0 56.143692016602 -0.09375 56.612442016602 -0.296875 C57.065567016602 -0.5 57.440567016602 -0.78125 57.706192016602 -1.15625 C57.971817016602 -1.546875 58.112442016602 -1.984375 58.112442016602 -2.484375 C58.112442016602 -3.015625 57.956192016602 -3.46875 57.674942016602 -3.84375 C57.393692016602 -4.234375 57.003067016602 -4.515625 56.503067016602 -4.703125 C56.862442016602 -4.90625 57.159317016602 -5.15625 57.362442016602 -5.484375 C57.565567016602 -5.8125 57.659317016602 -6.1875 57.659317016602 -6.625 C57.659317016602 -7.109375 57.534317016602 -7.53125 57.284317016602 -7.890625 C57.018692016602 -8.25 56.674942016602 -8.515625 56.221817016602 -8.703125 C55.753067016602 -8.90625 55.253067016602 -9 54.674942016602 -9 L51.534317016602 -9 ZM54.565567016602 -5.09375 L52.737442016602 -5.09375 L52.737442016602 -7.984375 L54.565567016602 -7.984375 C55.143692016602 -7.984375 55.596817016602 -7.84375 55.940567016602 -7.59375 C56.268692016602 -7.328125 56.440567016602 -6.984375 56.440567016602 -6.53125 C56.440567016602 -6.078125 56.268692016602 -5.734375 55.940567016602 -5.46875 C55.596817016602 -5.203125 55.143692016602 -5.09375 54.565567016602 -5.09375 ZM54.893692016602 -1.0625 L52.737442016602 -1.0625 L52.737442016602 -4.140625 L54.893692016602 -4.140625 C55.503067016602 -4.140625 55.987442016602 -4 56.346817016602 -3.734375 C56.706192016602 -3.453125 56.893692016602 -3.078125 56.893692016602 -2.59375 C56.893692016602 -2.125 56.706192016602 -1.75 56.346817016602 -1.484375 C55.987442016602 -1.203125 55.503067016602 -1.0625 54.893692016602 -1.0625 ZM61.031188964844 -4.6875 C61.187438964844 -4.53125 61.374938964844 -4.453125 61.609313964844 -4.453125 C61.843688964844 -4.453125 62.031188964844 -4.53125 62.187438964844 -4.6875 C62.343688964844 -4.8125 62.421813964844 -5.015625 62.421813964844 -5.265625 C62.421813964844 -5.515625 62.343688964844 -5.703125 62.187438964844 -5.84375 C62.015563964844 -6 61.828063964844 -6.078125 61.609313964844 -6.078125 C61.374938964844 -6.078125 61.187438964844 -6 61.031188964844 -5.84375 C60.874938964844 -5.703125 60.796813964844 -5.515625 60.796813964844 -5.265625 C60.796813964844 -5.015625 60.874938964844 -4.8125 61.031188964844 -4.6875 ZM59.312438964844 -6 L59.312438964844 0 L60.421813964844 0 L60.421813964844 -6 L59.312438964844 -6 ZM64.446807861328 -0.265625 C64.884307861328 -0.015625 65.368682861328 0.125 65.899932861328 0.125 C66.337432861328 0.125 66.743682861328 0.015625 67.118682861328 -0.1875 C67.493682861328 -0.375 67.806182861328 -0.671875 68.056182861328 -1.046875 L68.056182861328 0 L69.165557861328 0 L69.165557861328 -6 L68.056182861328 -6 L68.056182861328 -4.96875 C67.806182861328 -5.328125 67.493682861328 -5.625 67.134307861328 -5.8125 C66.759307861328 -6.015625 66.353057861328 -6.125 65.899932861328 -6.125 C65.368682861328 -6.125 64.884307861328 -5.984375 64.446807861328 -5.71875 C63.993682861328 -5.453125 63.649932861328 -5.09375 63.384307861328 -4.625 C63.134307861328 -4.140625 62.993682861328 -3.59375 62.993682861328 -3 C62.993682861328 -2.390625 63.134307861328 -1.84375 63.384307861328 -1.375 C63.649932861328 -0.90625 63.993682861328 -0.53125 64.446807861328 -0.265625 ZM67.134307861328 -1.125 C66.837432861328 -0.9375 66.493682861328 -0.84375 66.134307861328 -0.84375 C65.759307861328 -0.84375 65.415557861328 -0.9375 65.118682861328 -1.125 C64.806182861328 -1.296875 64.571807861328 -1.546875 64.384307861328 -1.875 C64.212432861328 -2.203125 64.118682861328 -2.578125 64.118682861328 -3 C64.118682861328 -3.40625 64.212432861328 -3.78125 64.384307861328 -4.109375 C64.571807861328 -4.4375 64.806182861328 -4.703125 65.118682861328 -4.875 C65.415557861328 -5.0625 65.759307861328 -5.15625 66.134307861328 -5.15625 C66.493682861328 -5.15625 66.837432861328 -5.0625 67.134307861328 -4.875 C67.446807861328 -4.703125 67.696807861328 -4.4375 67.868682861328 -4.109375 C68.056182861328 -3.78125 68.134307861328 -3.40625 68.134307861328 -3 C68.134307861328 -2.578125 68.056182861328 -2.203125 67.868682861328 -1.875 C67.696807861328 -1.546875 67.446807861328 -1.296875 67.134307861328 -1.125 ZM71.796798706055 -0.265625 C72.234298706055 -0.015625 72.718673706055 0.125 73.249923706055 0.125 C73.687423706055 0.125 74.093673706055 0.015625 74.468673706055 -0.1875 C74.843673706055 -0.375 75.156173706055 -0.671875 75.406173706055 -1.046875 L75.406173706055 0 L76.515548706055 0 L76.515548706055 -9 L75.406173706055 -9 L75.406173706055 -4.96875 C75.156173706055 -5.328125 74.843673706055 -5.625 74.484298706055 -5.8125 C74.109298706055 -6.015625 73.703048706055 -6.125 73.249923706055 -6.125 C72.718673706055 -6.125 72.234298706055 -5.984375 71.796798706055 -5.71875 C71.343673706055 -5.453125 70.999923706055 -5.09375 70.734298706055 -4.625 C70.484298706055 -4.140625 70.343673706055 -3.59375 70.343673706055 -3 C70.343673706055 -2.390625 70.484298706055 -1.84375 70.734298706055 -1.375 C70.999923706055 -0.90625 71.343673706055 -0.53125 71.796798706055 -0.265625 ZM74.484298706055 -1.125 C74.187423706055 -0.9375 73.843673706055 -0.84375 73.484298706055 -0.84375 C73.109298706055 -0.84375 72.765548706055 -0.9375 72.468673706055 -1.125 C72.156173706055 -1.296875 71.921798706055 -1.546875 71.734298706055 -1.875 C71.562423706055 -2.203125 71.468673706055 -2.578125 71.468673706055 -3 C71.468673706055 -3.40625 71.562423706055 -3.78125 71.734298706055 -4.109375 C71.921798706055 -4.4375 72.156173706055 -4.703125 72.468673706055 -4.875 C72.765548706055 -5.0625 73.109298706055 -5.15625 73.484298706055 -5.15625 C73.843673706055 -5.15625 74.187423706055 -5.0625 74.484298706055 -4.875 C74.796798706055 -4.703125 75.046798706055 -4.4375 75.218673706055 -4.109375 C75.406173706055 -3.78125 75.484298706055 -3.40625 75.484298706055 -3 C75.484298706055 -2.578125 75.406173706055 -2.203125 75.218673706055 -1.875 C75.046798706055 -1.546875 74.796798706055 -1.296875 74.484298706055 -1.125 ZM78.662414550781 -0.28125 C79.131164550781 -0.015625 79.662414550781 0.125 80.271789550781 0.125 C80.709289550781 0.125 81.115539550781 0.046875 81.474914550781 -0.09375 C81.849914550781 -0.234375 82.146789550781 -0.4375 82.365539550781 -0.71875 C82.584289550781 -1 82.709289550781 -1.3125 82.709289550781 -1.703125 C82.709289550781 -2.0625 82.599914550781 -2.359375 82.396789550781 -2.59375 C82.178039550781 -2.84375 81.928039550781 -3.015625 81.646789550781 -3.15625 C81.334289550781 -3.28125 80.974914550781 -3.40625 80.506164550781 -3.546875 C80.037414550781 -3.6875 79.693664550781 -3.8125 79.474914550781 -3.953125 C79.256164550781 -4.0625 79.146789550781 -4.25 79.146789550781 -4.484375 C79.146789550781 -4.703125 79.240539550781 -4.875 79.443664550781 -5.015625 C79.646789550781 -5.15625 79.896789550781 -5.21875 80.209289550781 -5.21875 C80.506164550781 -5.21875 80.771789550781 -5.15625 81.037414550781 -5.015625 C81.287414550781 -4.890625 81.490539550781 -4.71875 81.662414550781 -4.515625 L82.428039550781 -5.09375 C81.849914550781 -5.78125 81.115539550781 -6.125 80.256164550781 -6.125 C79.834289550781 -6.125 79.474914550781 -6.046875 79.146789550781 -5.90625 C78.803039550781 -5.75 78.537414550781 -5.546875 78.349914550781 -5.296875 C78.146789550781 -5.03125 78.053039550781 -4.734375 78.053039550781 -4.421875 C78.053039550781 -4.015625 78.193664550781 -3.6875 78.474914550781 -3.4375 C78.756164550781 -3.1875 79.131164550781 -2.984375 79.584289550781 -2.84375 L79.974914550781 -2.71875 C80.318664550781 -2.609375 80.599914550781 -2.515625 80.818664550781 -2.4375 C81.037414550781 -2.34375 81.209289550781 -2.234375 81.365539550781 -2.09375 C81.521789550781 -1.953125 81.599914550781 -1.796875 81.599914550781 -1.59375 C81.599914550781 -1.359375 81.474914550781 -1.15625 81.256164550781 -1.015625 C81.021789550781 -0.859375 80.724914550781 -0.796875 80.381164550781 -0.796875 C79.943664550781 -0.796875 79.537414550781 -0.890625 79.193664550781 -1.109375 C78.865539550781 -1.328125 78.599914550781 -1.59375 78.412414550781 -1.890625 L77.615539550781 -1.28125 C77.849914550781 -0.875 78.209289550781 -0.546875 78.662414550781 -0.28125 ZM87.581161499023 -0.15625 L87.424911499023 -1.046875 C87.112411499023 -0.921875 86.846786499023 -0.875 86.612411499023 -0.875 C86.237411499023 -0.875 85.924911499023 -0.984375 85.737411499023 -1.234375 C85.518661499023 -1.484375 85.424911499023 -1.828125 85.424911499023 -2.296875 L85.424911499023 -5.0625 L87.549911499023 -5.0625 L87.549911499023 -6 L85.424911499023 -6 L85.424911499023 -7.96875 L84.299911499023 -7.625 L84.299911499023 -6 L83.206161499023 -6 L83.206161499023 -5.0625 L84.299911499023 -5.0625 L84.299911499023 -2.171875 C84.299911499023 -1.453125 84.487411499023 -0.90625 84.846786499023 -0.5 C85.206161499023 -0.09375 85.721786499023 0.09375 86.362411499023 0.09375 C86.768661499023 0.09375 87.174911499023 0.015625 87.581161499023 -0.15625 ZM90.231155395508 -4.6875 C90.387405395508 -4.53125 90.574905395508 -4.453125 90.809280395508 -4.453125 C91.043655395508 -4.453125 91.231155395508 -4.53125 91.387405395508 -4.6875 C91.543655395508 -4.8125 91.621780395508 -5.015625 91.621780395508 -5.265625 C91.621780395508 -5.515625 91.543655395508 -5.703125 91.387405395508 -5.84375 C91.215530395508 -6 91.028030395508 -6.078125 90.809280395508 -6.078125 C90.574905395508 -6.078125 90.387405395508 -6 90.231155395508 -5.84375 C90.074905395508 -5.703125 89.996780395508 -5.515625 89.996780395508 -5.265625 C89.996780395508 -5.015625 90.074905395508 -4.8125 90.231155395508 -4.6875 ZM88.512405395508 -6 L88.512405395508 0 L89.621780395508 0 L89.621780395508 -6 L88.512405395508 -6 ZM98.287399291992 -2.6875 L98.287399291992 -2.90625 C98.287399291992 -3.546875 98.162399291992 -4.109375 97.912399291992 -4.59375 C97.662399291992 -5.078125 97.318649291992 -5.453125 96.881149291992 -5.71875 C96.443649291992 -5.984375 95.928024291992 -6.125 95.365524291992 -6.125 C94.787399291992 -6.125 94.256149291992 -5.984375 93.787399291992 -5.703125 C93.303024291992 -5.4375 92.943649291992 -5.0625 92.662399291992 -4.59375 C92.396774291992 -4.125 92.271774291992 -3.59375 92.271774291992 -3 C92.271774291992 -2.40625 92.412399291992 -1.859375 92.693649291992 -1.375 C92.974899291992 -0.90625 93.349899291992 -0.53125 93.834274291992 -0.265625 C94.303024291992 -0.015625 94.849899291992 0.125 95.443649291992 0.125 C95.974899291992 0.125 96.459274291992 0.015625 96.896774291992 -0.203125 C97.334274291992 -0.40625 97.709274291992 -0.703125 98.006149291992 -1.0625 L97.287399291992 -1.6875 C97.053024291992 -1.40625 96.787399291992 -1.203125 96.474899291992 -1.046875 C96.162399291992 -0.890625 95.834274291992 -0.8125 95.474899291992 -0.8125 C94.912399291992 -0.8125 94.443649291992 -0.984375 94.053024291992 -1.328125 C93.662399291992 -1.671875 93.443649291992 -2.125 93.365524291992 -2.6875 L98.287399291992 -2.6875 ZM97.162399291992 -3.453125 L93.381149291992 -3.453125 C93.459274291992 -3.96875 93.678024291992 -4.375 94.037399291992 -4.703125 C94.396774291992 -5.015625 94.818649291992 -5.1875 95.334274291992 -5.1875 C95.834274291992 -5.1875 96.256149291992 -5.015625 96.584274291992 -4.71875 C96.912399291992 -4.40625 97.115524291992 -3.984375 97.162399291992 -3.453125 ZM105.087387084961 -2.6875 L105.087387084961 -2.90625 C105.087387084961 -3.546875 104.962387084961 -4.109375 104.712387084961 -4.59375 C104.462387084961 -5.078125 104.118637084961 -5.453125 103.681137084961 -5.71875 C103.243637084961 -5.984375 102.728012084961 -6.125 102.165512084961 -6.125 C101.587387084961 -6.125 101.056137084961 -5.984375 100.587387084961 -5.703125 C100.103012084961 -5.4375 99.743637084961 -5.0625 99.462387084961 -4.59375 C99.196762084961 -4.125 99.071762084961 -3.59375 99.071762084961 -3 C99.071762084961 -2.40625 99.212387084961 -1.859375 99.493637084961 -1.375 C99.774887084961 -0.90625 100.149887084961 -0.53125 100.634262084961 -0.265625 C101.103012084961 -0.015625 101.649887084961 0.125 102.243637084961 0.125 C102.774887084961 0.125 103.259262084961 0.015625 103.696762084961 -0.203125 C104.134262084961 -0.40625 104.509262084961 -0.703125 104.806137084961 -1.0625 L104.087387084961 -1.6875 C103.853012084961 -1.40625 103.587387084961 -1.203125 103.274887084961 -1.046875 C102.962387084961 -0.890625 102.634262084961 -0.8125 102.274887084961 -0.8125 C101.712387084961 -0.8125 101.243637084961 -0.984375 100.853012084961 -1.328125 C100.462387084961 -1.671875 100.243637084961 -2.125 100.165512084961 -2.6875 L105.087387084961 -2.6875 ZM103.962387084961 -3.453125 L100.181137084961 -3.453125 C100.259262084961 -3.96875 100.478012084961 -4.375 100.837387084961 -4.703125 C101.196762084961 -5.015625 101.618637084961 -5.1875 102.134262084961 -5.1875 C102.634262084961 -5.1875 103.056137084961 -5.015625 103.384262084961 -4.71875 C103.712387084961 -4.40625 103.915512084961 -3.984375 103.962387084961 -3.453125 ZM109.98112487793 -0.15625 L109.82487487793 -1.046875 C109.51237487793 -0.921875 109.24674987793 -0.875 109.01237487793 -0.875 C108.63737487793 -0.875 108.32487487793 -0.984375 108.13737487793 -1.234375 C107.91862487793 -1.484375 107.82487487793 -1.828125 107.82487487793 -2.296875 L107.82487487793 -5.0625 L109.94987487793 -5.0625 L109.94987487793 -6 L107.82487487793 -6 L107.82487487793 -7.96875 L106.69987487793 -7.625 L106.69987487793 -6 L105.60612487793 -6 L105.60612487793 -5.0625 L106.69987487793 -5.0625 L106.69987487793 -2.171875 C106.69987487793 -1.453125 106.88737487793 -0.90625 107.24674987793 -0.5 C107.60612487793 -0.09375 108.12174987793 0.09375 108.76237487793 0.09375 C109.16862487793 0.09375 109.57487487793 0.015625 109.98112487793 -0.15625 ZM113.046737670898 -1.015625 L113.046737670898 0 L118.952987670898 0 L118.952987670898 -1.015625 L114.515487670898 -1.015625 L116.874862670898 -3.421875 C117.202987670898 -3.765625 117.484237670898 -4.0625 117.718612670898 -4.328125 C117.937362670898 -4.59375 118.156112670898 -4.9375 118.327987670898 -5.3125 C118.515487670898 -5.6875 118.593612670898 -6.09375 118.593612670898 -6.546875 C118.593612670898 -7.015625 118.484237670898 -7.4375 118.249862670898 -7.828125 C118.015487670898 -8.21875 117.687362670898 -8.53125 117.265487670898 -8.765625 C116.843612670898 -8.984375 116.390487670898 -9.09375 115.874862670898 -9.09375 C115.187362670898 -9.09375 114.624862670898 -8.921875 114.156112670898 -8.5625 C113.687362670898 -8.203125 113.296737670898 -7.71875 113.015487670898 -7.140625 L113.952987670898 -6.703125 C114.437362670898 -7.625 115.062362670898 -8.078125 115.812362670898 -8.078125 C116.109237670898 -8.078125 116.374862670898 -8 116.624862670898 -7.859375 C116.859237670898 -7.71875 117.046737670898 -7.515625 117.187362670898 -7.28125 C117.327987670898 -7.03125 117.406112670898 -6.765625 117.406112670898 -6.453125 C117.406112670898 -6.140625 117.312362670898 -5.8125 117.171737670898 -5.515625 C117.015487670898 -5.21875 116.843612670898 -4.953125 116.656112670898 -4.734375 C116.468612670898 -4.515625 116.234237670898 -4.265625 115.952987670898 -3.984375 L113.046737670898 -1.015625 ZM119.946731567383 -1.015625 L119.946731567383 0 L125.852981567383 0 L125.852981567383 -1.015625 L121.415481567383 -1.015625 L123.774856567383 -3.421875 C124.102981567383 -3.765625 124.384231567383 -4.0625 124.618606567383 -4.328125 C124.837356567383 -4.59375 125.056106567383 -4.9375 125.227981567383 -5.3125 C125.415481567383 -5.6875 125.493606567383 -6.09375 125.493606567383 -6.546875 C125.493606567383 -7.015625 125.384231567383 -7.4375 125.149856567383 -7.828125 C124.915481567383 -8.21875 124.587356567383 -8.53125 124.165481567383 -8.765625 C123.743606567383 -8.984375 123.290481567383 -9.09375 122.774856567383 -9.09375 C122.087356567383 -9.09375 121.524856567383 -8.921875 121.056106567383 -8.5625 C120.587356567383 -8.203125 120.196731567383 -7.71875 119.915481567383 -7.140625 L120.852981567383 -6.703125 C121.337356567383 -7.625 121.962356567383 -8.078125 122.712356567383 -8.078125 C123.009231567383 -8.078125 123.274856567383 -8 123.524856567383 -7.859375 C123.759231567383 -7.71875 123.946731567383 -7.515625 124.087356567383 -7.28125 C124.227981567383 -7.03125 124.306106567383 -6.765625 124.306106567383 -6.453125 C124.306106567383 -6.140625 124.212356567383 -5.8125 124.071731567383 -5.515625 C123.915481567383 -5.21875 123.743606567383 -4.953125 123.556106567383 -4.734375 C123.368606567383 -4.515625 123.134231567383 -4.265625 122.852981567383 -3.984375 L119.946731567383 -1.015625 ZM129.684219360352 -9 L129.684219360352 0 L130.871719360352 0 L130.871719360352 -6.59375 L133.637344360352 -2.1875 L134.574844360352 -2.1875 L137.324844360352 -6.59375 L137.324844360352 0 L138.527969360352 0 L138.527969360352 -9 L137.543594360352 -9 L134.106094360352 -3.59375 L130.652969360352 -9 L129.684219360352 -9 ZM141.29670715332 -0.265625 C141.73420715332 -0.015625 142.21858215332 0.125 142.74983215332 0.125 C143.18733215332 0.125 143.59358215332 0.015625 143.96858215332 -0.1875 C144.34358215332 -0.375 144.65608215332 -0.671875 144.90608215332 -1.046875 L144.90608215332 0 L146.01545715332 0 L146.01545715332 -6 L144.90608215332 -6 L144.90608215332 -4.96875 C144.65608215332 -5.328125 144.34358215332 -5.625 143.98420715332 -5.8125 C143.60920715332 -6.015625 143.20295715332 -6.125 142.74983215332 -6.125 C142.21858215332 -6.125 141.73420715332 -5.984375 141.29670715332 -5.71875 C140.84358215332 -5.453125 140.49983215332 -5.09375 140.23420715332 -4.625 C139.98420715332 -4.140625 139.84358215332 -3.59375 139.84358215332 -3 C139.84358215332 -2.390625 139.98420715332 -1.84375 140.23420715332 -1.375 C140.49983215332 -0.90625 140.84358215332 -0.53125 141.29670715332 -0.265625 ZM143.98420715332 -1.125 C143.68733215332 -0.9375 143.34358215332 -0.84375 142.98420715332 -0.84375 C142.60920715332 -0.84375 142.26545715332 -0.9375 141.96858215332 -1.125 C141.65608215332 -1.296875 141.42170715332 -1.546875 141.23420715332 -1.875 C141.06233215332 -2.203125 140.96858215332 -2.578125 140.96858215332 -3 C140.96858215332 -3.40625 141.06233215332 -3.78125 141.23420715332 -4.109375 C141.42170715332 -4.4375 141.65608215332 -4.703125 141.96858215332 -4.875 C142.26545715332 -5.0625 142.60920715332 -5.15625 142.98420715332 -5.15625 C143.34358215332 -5.15625 143.68733215332 -5.0625 143.98420715332 -4.875 C144.29670715332 -4.703125 144.54670715332 -4.4375 144.71858215332 -4.109375 C144.90608215332 -3.78125 144.98420715332 -3.40625 144.98420715332 -3 C144.98420715332 -2.578125 144.90608215332 -2.203125 144.71858215332 -1.875 C144.54670715332 -1.546875 144.29670715332 -1.296875 143.98420715332 -1.125 ZM148.521697998047 2.703125 C148.974822998047 2.953125 149.490447998047 3.09375 150.068572998047 3.09375 C150.615447998047 3.09375 151.099822998047 2.984375 151.537322998047 2.734375 C151.974822998047 2.515625 152.302947998047 2.171875 152.552947998047 1.734375 C152.802947998047 1.296875 152.943572998047 0.765625 152.943572998047 0.171875 L152.943572998047 -6 L151.818572998047 -6 L151.818572998047 -2.796875 C151.818572998047 -2.4375 151.740447998047 -2.125 151.599822998047 -1.84375 C151.459197998047 -1.5625 151.256072998047 -1.34375 151.006072998047 -1.1875 C150.756072998047 -1.015625 150.474822998047 -0.9375 150.146697998047 -0.9375 C149.709197998047 -0.9375 149.365447998047 -1.078125 149.115447998047 -1.375 C148.849822998047 -1.671875 148.724822998047 -2.078125 148.724822998047 -2.59375 L148.724822998047 -6 L147.599822998047 -6 L147.599822998047 -2.421875 C147.599822998047 -1.6875 147.802947998047 -1.09375 148.193572998047 -0.65625 C148.599822998047 -0.21875 149.146697998047 0 149.834197998047 0 C150.677947998047 0 151.349822998047 -0.359375 151.849822998047 -1.09375 L151.849822998047 0.109375 C151.849822998047 0.75 151.677947998047 1.234375 151.365447998047 1.59375 C151.037322998047 1.953125 150.599822998047 2.140625 150.084197998047 2.140625 C149.677947998047 2.140625 149.318572998047 2.046875 149.006072998047 1.84375 C148.693572998047 1.640625 148.443572998047 1.375 148.224822998047 1.0625 L147.459197998047 1.703125 C147.724822998047 2.109375 148.068572998047 2.4375 148.521697998047 2.703125 ZM156.696685791016 -1.015625 L156.696685791016 0 L162.602935791016 0 L162.602935791016 -1.015625 L158.165435791016 -1.015625 L160.524810791016 -3.421875 C160.852935791016 -3.765625 161.134185791016 -4.0625 161.368560791016 -4.328125 C161.587310791016 -4.59375 161.806060791016 -4.9375 161.977935791016 -5.3125 C162.165435791016 -5.6875 162.243560791016 -6.09375 162.243560791016 -6.546875 C162.243560791016 -7.015625 162.134185791016 -7.4375 161.899810791016 -7.828125 C161.665435791016 -8.21875 161.337310791016 -8.53125 160.915435791016 -8.765625 C160.493560791016 -8.984375 160.040435791016 -9.09375 159.524810791016 -9.09375 C158.837310791016 -9.09375 158.274810791016 -8.921875 157.806060791016 -8.5625 C157.337310791016 -8.203125 156.946685791016 -7.71875 156.665435791016 -7.140625 L157.602935791016 -6.703125 C158.087310791016 -7.625 158.712310791016 -8.078125 159.462310791016 -8.078125 C159.759185791016 -8.078125 160.024810791016 -8 160.274810791016 -7.859375 C160.509185791016 -7.71875 160.696685791016 -7.515625 160.837310791016 -7.28125 C160.977935791016 -7.03125 161.056060791016 -6.765625 161.056060791016 -6.453125 C161.056060791016 -6.140625 160.962310791016 -5.8125 160.821685791016 -5.515625 C160.665435791016 -5.21875 160.493560791016 -4.953125 160.306060791016 -4.734375 C160.118560791016 -4.515625 159.884185791016 -4.265625 159.602935791016 -3.984375 L156.696685791016 -1.015625 ZM165.0966796875 -0.421875 C165.5810546875 -0.0625 166.1123046875 0.125 166.7373046875 0.125 C167.3310546875 0.125 167.8623046875 -0.0625 168.3466796875 -0.421875 C168.8310546875 -0.78125 169.2060546875 -1.296875 169.4716796875 -2 C169.7373046875 -2.703125 169.8779296875 -3.53125 169.8779296875 -4.5 C169.8779296875 -5.453125 169.7373046875 -6.296875 169.4716796875 -6.984375 C169.2060546875 -7.6875 168.8310546875 -8.21875 168.3466796875 -8.578125 C167.8623046875 -8.9375 167.3310546875 -9.125 166.7373046875 -9.125 C166.1123046875 -9.125 165.5810546875 -8.9375 165.0966796875 -8.578125 C164.6123046875 -8.21875 164.2529296875 -7.6875 163.9873046875 -6.984375 C163.7060546875 -6.296875 163.5810546875 -5.453125 163.5810546875 -4.5 C163.5810546875 -3.53125 163.7060546875 -2.703125 163.9873046875 -2 C164.2529296875 -1.296875 164.6123046875 -0.78125 165.0966796875 -0.421875 ZM167.7685546875 -1.3125 C167.4560546875 -1.046875 167.1123046875 -0.90625 166.7373046875 -0.90625 C166.3466796875 -0.90625 165.9873046875 -1.046875 165.6904296875 -1.3125 C165.3935546875 -1.59375 165.1435546875 -2.015625 164.9873046875 -2.5625 C164.7998046875 -3.09375 164.7216796875 -3.734375 164.7216796875 -4.5 C164.7216796875 -5.25 164.7998046875 -5.90625 164.9873046875 -6.4375 C165.1435546875 -6.984375 165.3935546875 -7.390625 165.6904296875 -7.671875 C165.9873046875 -7.953125 166.3466796875 -8.09375 166.7373046875 -8.09375 C167.1123046875 -8.09375 167.4560546875 -7.953125 167.7685546875 -7.671875 C168.0654296875 -7.390625 168.3154296875 -6.984375 168.4873046875 -6.4375 C168.6435546875 -5.90625 168.7373046875 -5.25 168.7373046875 -4.5 C168.7373046875 -3.734375 168.6435546875 -3.09375 168.4873046875 -2.5625 C168.3154296875 -2.015625 168.0654296875 -1.59375 167.7685546875 -1.3125 ZM170.946670532227 -1.015625 L170.946670532227 0 L176.852920532227 0 L176.852920532227 -1.015625 L172.415420532227 -1.015625 L174.774795532227 -3.421875 C175.102920532227 -3.765625 175.384170532227 -4.0625 175.618545532227 -4.328125 C175.837295532227 -4.59375 176.056045532227 -4.9375 176.227920532227 -5.3125 C176.415420532227 -5.6875 176.493545532227 -6.09375 176.493545532227 -6.546875 C176.493545532227 -7.015625 176.384170532227 -7.4375 176.149795532227 -7.828125 C175.915420532227 -8.21875 175.587295532227 -8.53125 175.165420532227 -8.765625 C174.743545532227 -8.984375 174.290420532227 -9.09375 173.774795532227 -9.09375 C173.087295532227 -9.09375 172.524795532227 -8.921875 172.056045532227 -8.5625 C171.587295532227 -8.203125 171.196670532227 -7.71875 170.915420532227 -7.140625 L171.852920532227 -6.703125 C172.337295532227 -7.625 172.962295532227 -8.078125 173.712295532227 -8.078125 C174.009170532227 -8.078125 174.274795532227 -8 174.524795532227 -7.859375 C174.759170532227 -7.71875 174.946670532227 -7.515625 175.087295532227 -7.28125 C175.227920532227 -7.03125 175.306045532227 -6.765625 175.306045532227 -6.453125 C175.306045532227 -6.140625 175.212295532227 -5.8125 175.071670532227 -5.515625 C174.915420532227 -5.21875 174.743545532227 -4.953125 174.556045532227 -4.734375 C174.368545532227 -4.515625 174.134170532227 -4.265625 173.852920532227 -3.984375 L170.946670532227 -1.015625 ZM183.987289428711 -2.046875 L183.987289428711 -3.046875 L182.862289428711 -3.046875 L182.862289428711 -4.90625 L181.752914428711 -4.90625 L181.752914428711 -3.046875 L178.862289428711 -3.046875 L182.440414428711 -9 L181.237289428711 -9 L177.659164428711 -3.046875 L177.659164428711 -2.046875 L181.752914428711 -2.046875 L181.752914428711 0 L182.862289428711 0 L182.862289428711 -2.046875 L183.987289428711 -2.046875 Z" transform="translate(58.23291778564453,56.950035095214844)"/></g></svg>